<mxfile host="app.diagrams.net" modified="2024-01-11T09:28:49.123Z" agent="Mozilla/5.0 (Windows NT 10.0; Win64; x64) AppleWebKit/537.36 (KHTML, like Gecko) Chrome/117.0.0.0 Safari/537.36" version="22.1.18" etag="q8Ay41o37BvaSBcS36Cj" type="github">
  <diagram name="第 1 页" id="7LddtNs4FAAf9J0GI36v">
    <mxGraphModel>
      <root>
        <mxCell id="0" />
        <mxCell id="1" parent="0" />
      </root>
    </mxGraphModel>
  </diagram>
</mxfile>
